<svg xmlns="http://www.w3.org/2000/svg" width="138" height="54" fill="none"><path d="M77.695 26.633c.04.008.083.008.124 0 1.284-.065 2.191-.915 2.855-1.886 1.434-2.088 2.73-4.266 4.075-6.413.385-.615.727-1.886 1.759-1.38a.303.303 0 0 1 .162.194c.073.413 0 .838-.205 1.203a2721.78 2721.78 0 0 1-8.629 17.964c-.047.103-.171.163-.282.27-10.701-3.986-21.402-3.655-32.286-.184a.311.311 0 0 1-.381-.18c-2.449-6.044-4.91-12.101-7.384-18.222 0-.4.06-.585.244-.744a.56.56 0 0 1 .707 0c.228.154.442.326.642.516 1.155 1.98 2.238 4.008 3.51 5.91a9.2 9.2 0 0 0 2.418 2.402c1.365.954 2.568.481 3.107-1.117.694-2.148.428-4.296.159-6.47-.09-.772-.15-1.55-.219-2.37a.406.406 0 0 1 .301-.427.401.401 0 0 1 .187-.003c.788.176.903.808 1.092 1.366a40.14 40.14 0 0 0 1.34 3.935 9.966 9.966 0 0 0 1.78 2.698c1.284 1.37 3.078 1.447 4.31.034a12.8 12.8 0 0 0 2.26-3.866c1.284-3.484 1.678-7.16 1.935-10.847.055-.803 0-1.662.543-2.41a.312.312 0 0 1 .403-.068c.83.464.693 1.289.757 2.015.227 2.77.39 5.545.732 8.299a18.653 18.653 0 0 0 1.04 3.934c.245.7.578 1.365.99 1.98 1.788 2.647 3.851 2.926 5.525.59 1.185-1.655 2.012-3.562 2.996-5.366.043-.077.257-.537.3-.619 1.177-2.225 1.669-.472 1.46.46a14.104 14.104 0 0 0 0 6.641c.23.958.598 1.834 1.673 2.16zM5.465 42.956h8.052a486.498 486.498 0 0 0 1.712-5.155h2.722l-4.203 13.317h-2.714s1.028-3.338 1.584-5.155a28.745 28.745 0 0 0-3.96-.19c-1.322-.038-2.644 0-4.104 0-.612 1.818-1.815 5.774-1.815 5.774H0l4.31-13.746h2.675l-1.52 5.155zm99.704 11.005c.279-.885.488-1.559.758-2.414h6.258l2.568-8.161h-3.724a302.185 302.185 0 0 0-1.335 4.055l2.632.309c-.278.859-.518 1.56-.792 2.392-1.001 0-1.904.048-2.803 0-1.383-.094-2.021-.859-1.67-2.182a50.857 50.857 0 0 1 1.665-5.154 2.957 2.957 0 0 1 2.795-1.989c2.106-.052 4.216 0 6.468 0-.133.584-.201 1.04-.338 1.477-.916 2.942-1.844 5.881-2.782 8.82-.698 2.181-1.567 2.847-3.801 2.886-1.914-.013-3.827-.039-5.899-.039zm-25.668-2.9c-2.273 0-4.383.057-6.484-.02-1.409-.052-1.965-.821-1.593-2.204a71.927 71.927 0 0 1 1.79-5.696 3.087 3.087 0 0 1 1.165-1.59 3.07 3.07 0 0 1 1.886-.558c1.207-.026 2.41 0 3.763 0 .428-1.224.856-2.388 1.322-3.626h2.44c-1.438 4.554-2.82 9.026-4.289 13.695zm-5.436-2.95h3.716l1.502-4.725h-3.78c-.47 1.567-.92 3.045-1.438 4.725zm-49.959-4.296h-5.992l.753-2.341c3.972-.601 6.904-.348 8.253.86-.548 2.886-1.713 5.742-2.569 8.766h-7.426a3.591 3.591 0 0 1 1.738-5.343c1.335-.486 2.77-.705 4.152-1.07.4-.123.791-.27 1.173-.442l-.082-.43zm-1.284 4.725l.304-1.654c-1.67.482-2.902.353-4.156 1.654h3.852zm29.196-7.586c-.094.43-.142.696-.227.971-.146.455-.313.902-.51 1.46H45.29l-.505 1.01c.244.159.385.292.53.296 1.02 0 2.043-.03 3.061 0 1.601.07 2.166.808 1.802 2.35-.156.64-.363 1.267-.62 1.873a3.245 3.245 0 0 1-1.15 1.43 3.227 3.227 0 0 1-1.74.576c-2.046.06-4.104 0-6.42 0 .24-.833.428-1.542.685-2.406h6.108l.428-.945c-.21-.128-.347-.287-.492-.292-1.079-.034-2.14 0-3.24-.068-1.417-.09-1.96-.79-1.657-2.148.17-.763.415-1.507.732-2.221a2.99 2.99 0 0 1 2.65-1.899c2.144-.043 4.301.013 6.557.013zm45.447 1.233c-.672 2.148-1.284 4.27-2.029 6.37a3.097 3.097 0 0 1-1.127 1.613c-.541.4-1.197.612-1.869.604-1.387.043-2.773.082-4.156.021-1.383-.06-1.977-.837-1.61-2.186a81.087 81.087 0 0 1 1.785-5.692 3.2 3.2 0 0 1 1.14-1.597 3.182 3.182 0 0 1 1.857-.628 51.125 51.125 0 0 1 3.976-.038c1.083.025 1.151.115 2.033 1.533zm-6.553 1.199c-.496 1.615-.954 3.101-1.45 4.725h3.59c.471-1.538.938-3.063 1.451-4.725h-3.59zm35.817-2.496a16.027 16.027 0 0 0-1.759 0h-2.577a3.01 3.01 0 0 0-2.709 1.606 4.23 4.23 0 0 0-.201.456c-.176.48-.343.962-.51 1.443a80.76 80.76 0 0 0-.92 2.921c-.145.49-.282.98-.428 1.473a1.668 1.668 0 0 0 .814 2.003c.233.12.491.183.753.184.351 0 .702.03 1.053.034 1.053.022 2.105 0 3.158-.043a3.524 3.524 0 0 0 1.284-.283c.129-.056.253-.12.373-.194a2.57 2.57 0 0 0 1.07-1.288c.399-1.04.77-2.088 1.113-3.145a81.8 81.8 0 0 0 .963-3.196c.329-1.155-.283-1.864-1.477-1.971zm-2.761 7.22h-3.604c.505-1.649.972-3.174 1.443-4.724h3.625c-.509 1.65-.98 3.165-1.464 4.725zm-60.912-6.872h2.436c-.72 2.31-1.404 4.502-2.14 6.873h3.638c.779-2.401 1.562-4.803 2.376-7.303h2.504s-1.713 5.615-2.633 8.218c-.2.55-.56 1.025-1.033 1.366a2.89 2.89 0 0 1-1.62.545 35.76 35.76 0 0 1-4.345.035c-1.357-.07-1.977-.898-1.6-2.221.74-2.603 2.417-7.513 2.417-7.513zm-8.128 2.401l-1.476-.43.625-2.177 1.737-.284c.368-1.104.732-2.186 1.13-3.39h2.414c-.308 1.105-.607 2.149-.954 3.39l2.62.206c-.227.786-.429 1.5-.668 2.324l-2.83.206c-.492 1.542-.98 3.076-1.528 4.786l2.671.33c-.278.834-.522 1.56-.792 2.372h-2.44c-1.955-.035-2.52-.765-1.981-2.616.454-1.534.963-3.093 1.472-4.717zm46.586 7.05l4.191-13.317h2.696c-1.408 4.471-2.782 8.849-4.186 13.316h-2.701zm-67.957.429h-2.384c.385-1.268.728-2.415 1.083-3.561.398-1.29.796-2.578 1.22-3.866.424-1.29 1.284-2.148 2.64-2.281 1.614-.134 3.245-.03 5.099-.03l-.81 2.435h-4.49c-.791 2.462-1.536 4.794-2.358 7.303zm96.575 0h-2.294a3.214 3.214 0 0 1 0-.898 313.725 313.725 0 0 1 2.161-6.873 3.357 3.357 0 0 1 1.278-1.889 3.337 3.337 0 0 1 2.185-.633h4.494c-.192.915-.342 1.65-.539 2.578h-4.841a4580.14 4580.14 0 0 0-2.444 7.715zm-45.52-10.31h2.525a7236.489 7236.489 0 0 1-3.112 9.88h-2.5c1.053-3.376 2.06-6.585 3.087-9.88zm-54.98.43h2.5c-1.045 3.329-2.055 6.555-3.1 9.88H26.55c1.058-3.385 2.068-6.62 3.082-9.88zm60.497-28.54a2.083 2.083 0 0 1-.631 1.46 2.068 2.068 0 0 1-2.93-.049 2.083 2.083 0 0 1 .728-3.38 2.064 2.064 0 0 1 2.25.489 2.08 2.08 0 0 1 .583 1.48z" fill="#AD974F"/><path d="M76.732 9.725a2.015 2.015 0 0 1 1.857 1.242 2.035 2.035 0 0 1-.415 2.2 2.02 2.02 0 0 1-2.18.475 2.02 2.02 0 0 1-1.287-1.83c0-.543.212-1.066.59-1.456.378-.39.893-.616 1.435-.63zM61.956 0c1.571 0 2.376 1.03 2.346 2.148a2.105 2.105 0 0 1-.548 1.31 2.09 2.09 0 0 1-1.254.661 2.047 2.047 0 0 1-1.377-.318 2.057 2.057 0 0 1-.844-1.138C59.944 1.581 60.18.477 61.956 0zM36.703 14.141a1.928 1.928 0 0 1-1.493-.52 1.942 1.942 0 0 1-.608-1.464 1.99 1.99 0 0 1 1.235-1.928c.252-.101.522-.15.793-.143a2.025 2.025 0 0 1 1.393.552c.377.355.604.841.636 1.36a2.004 2.004 0 0 1-1.17 1.968 1.984 1.984 0 0 1-.786.175zm13.239-2.478a2.015 2.015 0 0 1-1.487 1.752 1.98 1.98 0 0 1-.807.043 1.954 1.954 0 0 1-1.382-.771 1.97 1.97 0 0 1-.365-1.544c.074-.513.341-.977.747-1.297.405-.32.918-.47 1.432-.421a2.023 2.023 0 0 1 1.4.725 2.038 2.038 0 0 1 .462 1.513zM33.223 37.8l-.783 2.148h-2.243l.65-2.148h2.376zm52.613-.43h2.281l-.689 2.148h-2.226l.634-2.147z" fill="#AD974F"/></svg>